<?xml version="1.0" standalone="no"?>
<!DOCTYPE svg PUBLIC "-//W3C//DTD SVG 20010904//EN"
 "http://www.w3.org/TR/2001/REC-SVG-20010904/DTD/svg10.dtd">
<svg version="1.0" xmlns="http://www.w3.org/2000/svg"
 width="300.000000pt" height="300.000000pt" viewBox="0 0 300.000000 300.000000"
 preserveAspectRatio="xMidYMid meet">
<metadata>
Created by potrace 1.11, written by Peter Selinger 2001-2013
</metadata>
<g transform="translate(0.000000,300.000000) scale(0.100000,-0.100000)"
fill="#000000" stroke="none">
<path d="M1280 2983 c-592 -88 -1081 -527 -1231 -1104 -36 -140 -47 -245 -44
-409 8 -403 155 -750 439 -1033 217 -216 488 -357 791 -413 106 -19 362 -26
462 -12 571 82 1035 464 1222 1004 51 146 73 279 76 454 5 267 -38 459 -155
695 -213 430 -598 721 -1075 812 -110 21 -366 24 -485 6z m509 -257 c57 -15
137 -40 177 -56 408 -163 709 -541 778 -975 14 -89 15 -337 1 -400 -63 -296
-173 -504 -364 -692 -232 -228 -517 -349 -841 -358 -170 -4 -281 11 -423 56
-373 119 -681 419 -806 785 -51 152 -65 242 -65 419 0 165 7 212 50 364 122
420 504 772 936 861 137 28 131 27 298 24 127 -2 174 -7 259 -28z"/>
<path d="M1365 2473 c-252 -37 -428 -150 -513 -331 -34 -73 -36 -83 -36 -182
-1 -78 4 -119 18 -160 66 -190 236 -322 561 -434 354 -123 422 -172 429 -310
7 -144 -105 -229 -303 -227 -84 0 -95 1 -156 16 -123 31 -215 144 -215 263 0
18 -3 32 -7 33 -38 5 -377 3 -385 -2 -7 -4 -8 -28 -3 -65 26 -213 147 -373
355 -472 122 -58 239 -83 407 -86 238 -5 460 69 574 191 96 103 131 197 130
353 -2 187 -86 329 -262 445 -92 60 -174 97 -364 161 -291 99 -379 160 -386
265 -10 141 104 233 295 238 192 5 316 -96 325 -266 1 -9 52 -12 193 -12 106
0 195 2 198 4 11 7 -10 137 -31 195 -103 283 -440 440 -824 383z"/>
</g>
</svg>
